<svg width="900" height="220" viewBox="0 0 900 220" fill="none" xmlns="http://www.w3.org/2000/svg" role="img" aria-labelledby="title desc">
  <title id="title">MapKAI logo</title>
  <desc id="desc">A green route-map icon forming the letter K, followed by the MapKAI wordmark.</desc>
  <rect width="900" height="220" rx="28" fill="#F6F2E8"/>
  <g transform="translate(42 34)">
    <rect width="152" height="152" rx="30" fill="#1F7A5C"/>
    <path d="M46 108V44" stroke="#FFF7E8" stroke-width="14" stroke-linecap="round"/>
    <path d="M52 76L106 42" stroke="#FFF7E8" stroke-width="14" stroke-linecap="round"/>
    <path d="M54 78L112 112" stroke="#FFF7E8" stroke-width="14" stroke-linecap="round"/>
    <circle cx="46" cy="44" r="13" fill="#C9952F" stroke="#FFF7E8" stroke-width="6"/>
    <circle cx="106" cy="42" r="13" fill="#D95D43" stroke="#FFF7E8" stroke-width="6"/>
    <circle cx="112" cy="112" r="13" fill="#406F9F" stroke="#FFF7E8" stroke-width="6"/>
    <circle cx="46" cy="108" r="13" fill="#F6F2E8" stroke="#FFF7E8" stroke-width="6"/>
  </g>
  <g transform="translate(232 56)">
    <path d="M7.2 105V5.2H28.9L64.4 70.3L99.9 5.2H121.6V105H99.2V45.7L72.4 95H56.4L29.6 45.9V105H7.2Z" fill="#17201B"/>
    <path d="M178.6 106.7C171.3 106.7 164.7 105.1 158.8 101.9C152.9 98.6 148.3 94.1 145 88.2C141.6 82.3 139.9 75.5 139.9 67.8C139.9 60.1 141.6 53.4 145 47.5C148.4 41.6 153.1 37 159.1 33.7C165.1 30.4 171.9 28.7 179.5 28.7C187.4 28.7 194.1 30.6 199.7 34.4C205.2 38.2 209.2 43.2 211.6 49.4V30.5H233V105H211.6V86.1C209 92.5 204.8 97.6 199.1 101.3C193.4 104.9 186.5 106.7 178.6 106.7ZM186.7 87.4C194.1 87.4 200.1 85.1 204.8 80.5C209.4 75.8 211.7 69.8 211.7 62.4C211.7 55.1 209.4 49.2 204.8 44.7C200.1 40.1 194.1 37.8 186.7 37.8C179.4 37.8 173.4 40.1 168.8 44.7C164.1 49.2 161.8 55.1 161.8 62.4C161.8 69.8 164.1 75.8 168.8 80.5C173.4 85.1 179.4 87.4 186.7 87.4Z" fill="#17201B"/>
    <path d="M258.8 135V30.5H280.2V49.5C282.8 43.2 287 38.2 292.7 34.4C298.4 30.6 305.2 28.7 313.1 28.7C320.4 28.7 327 30.4 332.9 33.7C338.8 37 343.4 41.6 346.8 47.5C350.1 53.4 351.8 60.1 351.8 67.8C351.8 75.5 350.1 82.3 346.8 88.2C343.4 94.1 338.7 98.6 332.7 101.9C326.7 105.1 319.9 106.7 312.3 106.7C304.6 106.7 297.9 105 292.3 101.5C286.7 98 282.7 93.3 280.2 87.3V135H258.8ZM305.1 87.4C312.5 87.4 318.5 85.1 323.1 80.5C327.8 75.8 330.1 69.8 330.1 62.4C330.1 55.1 327.8 49.2 323.1 44.7C318.5 40.1 312.5 37.8 305.1 37.8C297.8 37.8 291.8 40.1 287.1 44.7C282.5 49.2 280.2 55.1 280.2 62.4C280.2 69.8 282.5 75.8 287.1 80.5C291.8 85.1 297.8 87.4 305.1 87.4Z" fill="#17201B"/>
    <path d="M374.8 105V5.2H397.2V48.7L435.8 5.2H463.6L420.5 52.2L467.6 105H438.8L397.2 57.2V105H374.8Z" fill="#1F7A5C"/>
    <path d="M505.7 106.7C498.4 106.7 491.8 105.1 485.9 101.9C480 98.6 475.4 94.1 472.1 88.2C468.7 82.3 467 75.5 467 67.8C467 60.1 468.7 53.4 472.1 47.5C475.5 41.6 480.2 37 486.2 33.7C492.2 30.4 499 28.7 506.6 28.7C514.5 28.7 521.2 30.6 526.8 34.4C532.3 38.2 536.3 43.2 538.7 49.4V30.5H560.1V105H538.7V86.1C536.1 92.5 531.9 97.6 526.2 101.3C520.5 104.9 513.6 106.7 505.7 106.7ZM513.8 87.4C521.2 87.4 527.2 85.1 531.9 80.5C536.5 75.8 538.8 69.8 538.8 62.4C538.8 55.1 536.5 49.2 531.9 44.7C527.2 40.1 521.2 37.8 513.8 37.8C506.5 37.8 500.5 40.1 495.9 44.7C491.2 49.2 488.9 55.1 488.9 62.4C488.9 69.8 491.2 75.8 495.9 80.5C500.5 85.1 506.5 87.4 513.8 87.4Z" fill="#1F7A5C"/>
    <path d="M587.2 105V30.5H608.6V105H587.2ZM598 19.6C594.2 19.6 591 18.4 588.5 16C586 13.6 584.8 10.6 584.8 7C584.8 3.4 586 -0.1 588.5 -2.5C591 -4.9 594.2 -6.1 598 -6.1C601.8 -6.1 604.9 -4.9 607.4 -2.5C609.9 -0.1 611.2 3.4 611.2 7C611.2 10.6 609.9 13.6 607.4 16C604.9 18.4 601.8 19.6 598 19.6Z" fill="#1F7A5C"/>
  </g>
</svg>
